<?xml version="1.0" encoding="UTF-8" standalone="no"?>
<svg
   xmlns:dc="http://purl.org/dc/elements/1.1/"
   xmlns:cc="http://creativecommons.org/ns#"
   xmlns:rdf="http://www.w3.org/1999/02/22-rdf-syntax-ns#"
   xmlns:svg="http://www.w3.org/2000/svg"
   xmlns="http://www.w3.org/2000/svg"
   xmlns:sodipodi="http://sodipodi.sourceforge.net/DTD/sodipodi-0.dtd"
   xmlns:inkscape="http://www.inkscape.org/namespaces/inkscape"
   width="640"
   height="480"
   version="1.1"
   id="svg28"
   sodipodi:docname="LOGOO.svg"
   inkscape:version="0.92.2 (5c3e80d, 2017-08-06)">
  <metadata
     id="metadata34">
    <rdf:RDF>
      <cc:Work
         rdf:about="">
        <dc:format>image/svg+xml</dc:format>
        <dc:type
           rdf:resource="http://purl.org/dc/dcmitype/StillImage" />
        <dc:title></dc:title>
      </cc:Work>
    </rdf:RDF>
  </metadata>
  <defs
     id="defs32">
    <filter
       inkscape:label="Monochrome Transparency"
       inkscape:menu="Fill and Transparency"
       inkscape:menu-tooltip="Convert to a colorizable transparent positive or negative"
       style="color-interpolation-filters:sRGB;"
       id="filter93">
      <feColorMatrix
         type="luminanceToAlpha"
         result="fbSourceGraphic"
         id="feColorMatrix85" />
      <feFlood
         flood-color="rgb(134,39,24)"
         result="result1"
         flood-opacity="1"
         id="feFlood87" />
      <feComposite
         operator="out"
         in2="fbSourceGraphic"
         result="result2"
         id="feComposite89" />
      <feComposite
         operator="in"
         in2="SourceGraphic"
         id="feComposite91" />
    </filter>
  </defs>
  <sodipodi:namedview
     pagecolor="#ffffff"
     bordercolor="#666666"
     borderopacity="1"
     objecttolerance="10"
     gridtolerance="10"
     guidetolerance="10"
     inkscape:pageopacity="0"
     inkscape:pageshadow="2"
     inkscape:window-width="1024"
     inkscape:window-height="706"
     id="namedview30"
     showgrid="false"
     inkscape:zoom="0.32490096"
     inkscape:cx="-308.93162"
     inkscape:cy="712.00834"
     inkscape:window-x="-8"
     inkscape:window-y="-8"
     inkscape:window-maximized="1"
     inkscape:current-layer="g26" />
  <!-- Created with SVG-edit - http://svg-edit.googlecode.com/ -->
  <g
     id="g26"
     transform="matrix(1.0000369,0,0,0.90837229,-36.911828,-38.157435)">
    <title
       id="title23">Layer 1</title>
    <text
       style="font-weight:bold;font-size:24px;font-family:serif;text-anchor:middle;fill:#007f00;stroke:#000000;stroke-width:0"
       font-weight="bold"
       transform="matrix(2.52299,0,0,2.89263,-557.409,-383.961)"
       xml:space="preserve"
       font-size="24"
       id="svg_2"
       y="210.6543"
       x="358.39636" />
    <flowRoot
       xml:space="preserve"
       id="flowRoot36"
       style="font-style:normal;font-variant:normal;font-weight:normal;font-stretch:condensed;font-size:40px;line-height:1;font-family:Impact;-inkscape-font-specification:'Impact Condensed';letter-spacing:0px;word-spacing:0px;fill:#000000;fill-opacity:1;stroke:none"
       transform="translate(674.0267,626.84023)"><flowRegion
         id="flowRegion38"
         style="font-style:normal;font-variant:normal;font-weight:normal;font-stretch:condensed;line-height:1;font-family:Impact;-inkscape-font-specification:'Impact Condensed'"><rect
           id="rect40"
           width="244.26035"
           height="49.230755"
           x="-434.55621"
           y="-291.59763"
           style="font-style:normal;font-variant:normal;font-weight:normal;font-stretch:condensed;line-height:1;font-family:Impact;-inkscape-font-specification:'Impact Condensed'" /></flowRegion><flowPara
         id="flowPara42"
         style="font-style:normal;font-variant:normal;font-weight:normal;font-stretch:condensed;font-size:48px;line-height:1;font-family:Impact;-inkscape-font-specification:'Impact Condensed';fill:#550000">E.ADRIAN.V.O</flowPara></flowRoot>    <path
       style="fill:#c8b7b7;stroke:#000000;stroke-width:1.46082139px;stroke-linecap:butt;stroke-linejoin:miter;stroke-opacity:1;filter:url(#filter93)"
       d="M 215.77378,378.94096 C 267.88989,230.18921 160.49861,249.8471 272.1539,225.57931 383.80919,201.31151 418.49569,337.86103 418.49569,337.86103 l 95.85977,-61.46937 46.43448,100.52227 z"
       id="path77"
       inkscape:connector-curvature="0" />
    <path
       style="fill:#c8b7b7;stroke-width:0.99332947"
       d="m 220.73672,367.21203 c 7.62564,-24.06895 11.10425,-44.48836 11.05277,-64.87969 -0.0432,-17.12392 -1.79136,-27.10608 -7.49578,-42.80259 -4.51527,-12.42439 -4.87181,-14.86149 -2.54842,-17.41934 2.79798,-3.08033 10.48221,-5.90608 27.28348,-10.03306 41.42868,-10.17632 60.98781,-10.5455 84.27704,-1.59073 33.18321,12.75904 61.58868,45.92075 78.79289,91.98607 4.10436,10.98967 5.19393,15.48843 7.67023,31.6701 1.58747,10.37348 2.88631,19.60967 2.88631,20.52487 0,1.08011 -0.8305,1.664 -2.36678,1.664 -2.07374,0 -2.36677,-0.45163 -2.36677,-3.64785 0,-3.62855 -0.0225,-3.64786 -4.26019,-3.64786 -4.23767,0 -4.26021,0.0193 -4.26021,3.64786 0,2.00632 -0.42602,3.64785 -0.94671,3.64785 -0.59607,0 -0.94671,-6.9483 -0.94671,-18.76039 v -18.76039 h -4.2602 -4.26019 l -0.0612,7.55627 -0.0612,7.55626 -2.47634,-7.55626 -2.47634,-7.55627 h -4.56281 -4.56282 v 18.9341 c 0,10.41374 -0.18864,18.7264 -0.41922,18.47255 -0.23058,-0.25384 -1.51242,-7.7189 -2.84852,-16.58904 -1.3361,-8.87013 -2.64663,-17.18278 -2.91229,-18.47256 -0.45045,-2.18699 -0.9827,-2.34505 -7.89623,-2.34505 h -7.41321 l -2.18417,17.45759 c -1.20129,9.60167 -2.51644,18.3956 -2.92256,19.54207 -0.40611,1.14647 -0.76539,-6.70945 -0.79839,-17.45759 l -0.0601,-19.54207 h -5.2069 -5.20691 v 19.28151 c 0,15.64149 -0.24512,19.28152 -1.29842,19.28152 -0.95735,0 -1.41575,-2.2311 -1.74503,-8.49303 -0.32559,-6.19209 -0.86047,-8.82621 -1.9743,-9.72285 -1.40521,-1.13121 -1.40445,-1.36551 0.009,-2.92202 2.00634,-2.20881 2.0201,-10.19577 0.0234,-13.55072 -1.78964,-3.00678 -5.0459,-3.87441 -14.541,-3.87441 h -6.98199 v 19.28151 19.28152 h -3.52414 c -3.45957,0 -3.48558,-0.0297 -1.42007,-1.62246 2.00403,-1.54533 2.10407,-2.31673 2.10407,-16.22332 0,-8.03045 -0.41702,-15.45868 -0.92672,-16.50717 -1.4013,-2.88258 -6.0791,-4.21008 -14.83528,-4.21008 h -7.90577 l -0.11076,19.54207 -0.11077,19.54208 -2.96604,-19.28151 -2.96604,-19.28152 h -7.5524 -7.5524 l -2.38806,18.23927 c -1.31343,10.0316 -2.52156,16.71498 -2.68472,14.85197 -0.2788,-3.18329 -0.51783,-3.38729 -3.9691,-3.38729 -3.6325,0 -3.67636,0.0481 -4.03481,4.42954 l -0.36239,4.42954 -0.1654,-4.42954 -0.16539,-4.42954 h -3.78685 c -3.69668,0 -3.78684,-0.0869 -3.78684,-3.64785 0,-3.47414 0.15778,-3.64786 3.31348,-3.64786 3.23461,0 3.31349,-0.0992 3.31349,-4.16897 0,-4.06971 -0.0789,-4.16897 -3.31349,-4.16897 -3.0505,0 -3.31348,-0.24816 -3.31348,-3.12674 0,-2.87857 0.26298,-3.12674 3.31348,-3.12674 3.23461,0 3.31349,-0.0992 3.31349,-4.16897 v -4.16897 h -8.52039 -8.5204 v 19.28151 19.28152 h -11.68481 -11.68481 z"
       id="path140"
       inkscape:connector-curvature="0" />
    <path
       style="fill:#6c5353;stroke-width:0.99332947"
       d="m 439.7227,373.98661 c 0.0147,-1.28977 1.00717,-9.73195 2.20553,-18.76039 l 2.17885,-16.41534 h -5.44379 c -6.20286,0 -5.80145,-0.73343 -7.13009,13.02805 l -0.70439,7.29571 -1.00997,-9.90132 -1.00998,-9.90132 -4.42678,-0.52112 -4.42678,-0.52112 46.98208,-30.11869 c 25.84015,-16.56526 47.13232,-29.69754 47.31595,-29.18282 0.18365,0.51471 10.21897,22.27579 22.30072,48.35795 l 21.96684,47.42209 -3.31982,0.72162 c -1.82591,0.3969 -20.90296,0.74865 -42.39346,0.78169 l -39.07364,0.0601 1.51021,-2.53746 c 1.83671,-3.08603 2.83117,-15.72811 1.88974,-24.02335 -1.07384,-9.46207 -6.89506,-13.55933 -15.59875,-10.97918 -6.63849,1.96795 -7.63848,4.55097 -7.63848,19.7305 0,10.23911 0.32856,13.69312 1.47375,15.4931 1.40781,2.21276 1.36545,2.31639 -0.94671,2.31639 -2.1351,0 -2.42046,-0.43006 -2.42046,-3.64785 0,-3.62856 -0.0225,-3.64785 -4.26019,-3.64785 -4.23767,0 -4.2602,0.0193 -4.2602,3.64785 0,2.95303 -0.36065,3.64785 -1.89343,3.64785 -1.34031,0 -1.88563,-0.68503 -1.86675,-2.34505 z"
       id="path142"
       inkscape:connector-curvature="0" />
    <path
       style="fill:#6c5353;stroke-width:0.99332947"
       d="m 219.52717,370.67053 c 7.70792,-22.54452 11.96884,-46.63852 11.99372,-67.82035 0.0205,-17.43208 -1.82529,-28.15265 -7.58453,-44.05247 -2.13245,-5.88717 -3.87719,-11.79436 -3.87719,-13.12708 0,-3.96375 2.69782,-5.8369 14.20066,-9.85981 5.77428,-2.01945 34.81117,-8.70697 44.96876,-10.35681 2.60345,-0.42287 11.97588,-0.73354 20.82763,-0.69039 14.1874,0.0691 17.17291,0.39749 25.20037,2.77147 19.43147,5.74649 34.83529,16.00352 51.06303,34.00162 12.03705,13.35022 21.55366,27.95642 29.23513,44.87038 5.15541,11.35184 11.05352,27.23416 11.84002,31.88267 2.01962,11.93671 5.26047,34.01602 5.26047,35.83863 0,1.64005 -0.58968,2.20327 -2.30679,2.20327 -1.91055,0 -2.35775,-0.58185 -2.60346,-3.38729 -0.28047,-3.20257 -0.50316,-3.3873 -4.08349,-3.3873 -3.58494,0 -3.80273,0.18167 -4.08484,3.40708 -0.16391,1.87391 -0.69644,3.136 -1.1834,2.80467 -0.49461,-0.33654 -0.88539,-8.62526 -0.88539,-18.78019 v -18.17775 h -4.21872 -4.21873 l -0.27815,7.55627 -0.27815,7.55626 -2.34485,-7.55626 -2.34486,-7.55627 h -4.5188 -4.51879 l -0.0641,18.49982 c -0.0726,20.95454 -0.7458,21.09725 -3.6877,0.78169 -1.07913,-7.45205 -2.20515,-14.85793 -2.50227,-16.45752 l -0.5402,-2.90836 -7.25337,0.30275 -7.25335,0.30274 -2.36678,17.38909 c -1.30173,9.564 -2.68629,17.73259 -3.07681,18.15242 -0.39052,0.41982 -0.71004,-7.52252 -0.71004,-17.64965 v -18.41298 h -5.2069 -5.20691 v 18.69887 c 0,17.01241 -0.62294,21.92821 -2.38178,18.79519 -0.34055,-0.60664 -0.92552,-4.63364 -1.29994,-8.94888 -0.37902,-4.36849 -1.20243,-8.20087 -1.85781,-8.64679 -0.90557,-0.61614 -0.83919,-1.10959 0.28781,-2.13931 2.23546,-2.04246 1.98975,-11.97004 -0.3603,-14.55722 -2.12973,-2.34464 -7.86845,-3.48087 -15.21561,-3.0126 l -5.20691,0.33186 -0.25803,19.02095 -0.25804,19.02096 h -3.29213 c -3.29213,0 -3.29213,0 -1.39871,-2.08449 1.71082,-1.88346 1.89342,-3.47415 1.89342,-16.49424 0,-14.03826 -0.0612,-14.47308 -2.37634,-16.86747 -2.14891,-2.22252 -3.25886,-2.46435 -11.59721,-2.52672 l -9.22086,-0.069 -0.47336,18.7604 c -0.51699,20.48982 -0.27865,20.78693 -4.1802,-5.21122 l -2.03332,-13.54918 -7.23105,-0.30289 c -6.281,-0.2631 -7.29279,-0.0578 -7.70094,1.56337 -0.25845,1.02644 -1.4642,9.37042 -2.67947,18.54216 -1.21525,9.17175 -2.34484,15.1252 -2.51019,13.2299 -0.28647,-3.2836 -0.46476,-3.43097 -3.78259,-3.12674 -3.01058,0.27606 -3.56348,0.74256 -4.08423,3.44601 l -0.60228,3.12674 -0.11201,-3.3873 c -0.10702,-3.23646 -0.28063,-3.38729 -3.89885,-3.38729 -3.69668,0 -3.78684,-0.0869 -3.78684,-3.64786 0,-3.48592 0.14962,-3.64785 3.37063,-3.64785 3.31606,0 3.36588,-0.0633 3.07681,-3.90841 -0.26825,-3.56821 -0.56164,-3.93685 -3.37064,-4.23501 -2.70543,-0.28718 -3.0768,-0.69603 -3.0768,-3.38729 0,-2.80312 0.27886,-3.06071 3.31348,-3.06071 3.23461,0 3.31349,-0.0992 3.31349,-4.16897 v -4.16898 h -8.52039 -8.5204 v 19.28152 19.28152 H 229.06106 217.2353 Z"
       id="path144"
       inkscape:connector-curvature="0" />
    <path
       style="fill:#6c5353;stroke-width:0.99332947"
       d="m 466.55806,358.09239 c 0.002,-6.30558 0.15807,-8.75075 0.34651,-5.43372 0.18844,3.31702 0.18669,8.47613 -0.004,11.46468 -0.19058,2.98854 -0.34477,0.27461 -0.34263,-6.03096 z"
       id="path146"
       inkscape:connector-curvature="0" />
    <path
       style="fill:#6c5353;stroke-width:0.99332947"
       d="m 464.31051,358.67502 c 0,-7.17268 0.40109,-12.71832 0.94671,-13.08955 0.61195,-0.41637 0.94671,3.98444 0.94671,12.44541 0,8.03154 -0.36582,13.08956 -0.94671,13.08956 -0.57829,0 -0.94671,-4.8433 -0.94671,-12.44542 z"
       id="path148"
       inkscape:connector-curvature="0" />
    <path
       style="fill:#6c5353;stroke-width:0.99332947"
       d="m 394.32866,370.33875 c 0.0806,-6.46067 0.16568,-6.42011 2.18629,1.04225 1.26943,4.68816 1.24503,4.95066 -0.46025,4.95066 -1.56978,0 -1.79119,-0.76877 -1.72604,-5.99291 z"
       id="path150"
       inkscape:connector-curvature="0" />
    <path
       style="fill:#6c5353;stroke-width:0.99332947"
       d="m 369.63945,374.24717 c 0,-2.08448 0.47335,-3.12673 1.42006,-3.12673 0.78104,0 1.42588,0.35176 1.43299,0.78168 0.007,0.42993 0.26981,1.83696 0.58377,3.12674 0.46038,1.89123 0.18307,2.34505 -1.43298,2.34505 -1.59536,0 -2.00384,-0.6374 -2.00384,-3.12674 z"
       id="path152"
       inkscape:connector-curvature="0" />
    <path
       style="fill:#6c5353;stroke-width:0.99332947"
       d="m 331.77102,369.03595 c 0,-4.8638 0.39446,-8.33795 0.94671,-8.33795 0.55225,0 0.94672,3.47415 0.94672,8.33795 0,4.86381 -0.39447,8.33796 -0.94672,8.33796 -0.55225,0 -0.94671,-3.47415 -0.94671,-8.33796 z"
       id="path154"
       inkscape:connector-curvature="0" />
    <path
       style="fill:#6c5353;stroke-width:0.99332947"
       d="m 305.26313,358.03088 c 0,-7.76614 0.33642,-11.81841 0.9467,-11.40317 1.26147,0.8583 1.26147,23.45049 0,23.45049 -0.57654,0 -0.9467,-4.7106 -0.9467,-12.04732 z"
       id="path156"
       inkscape:connector-curvature="0" />
    <path
       style="fill:#6c5353;stroke-width:0.99332947"
       d="m 278.75522,374.24717 c 0,-2.4319 0.42077,-3.12673 1.89342,-3.12673 1.47267,0 1.89342,0.69483 1.89342,3.12673 0,2.4319 -0.42075,3.12674 -1.89342,3.12674 -1.47265,0 -1.89342,-0.69484 -1.89342,-3.12674 z"
       id="path158"
       inkscape:connector-curvature="0" />
    <path
       style="fill:#6c5353;stroke-width:0.94674557"
       d=""
       id="path160"
       inkscape:connector-curvature="0"
       transform="matrix(0.9999631,0,0,1.1008702,36.910466,42.006384)" />
    <path
       style="fill:#6c5353;stroke-width:0.99332947"
       d="m 279.79631,358.35295 c 0.0802,-3.76294 0.20843,-4.03742 0.85233,-1.82392 1.0911,3.75075 1.0911,6.25346 0,6.25346 -0.52069,0 -0.90423,-1.99329 -0.85233,-4.42954 z"
       id="path162"
       inkscape:connector-curvature="0" />
    <path
       style="fill:#6c5353;stroke-width:0.99332947"
       d="m 370.01152,361.13388 c 0.31604,-0.90673 0.57464,-3.32995 0.57464,-5.38493 0,-4.93468 0.53955,-4.0488 1.26858,2.08288 0.48743,4.09957 0.33019,4.95066 -0.91463,4.95066 -0.98181,0 -1.30391,-0.57186 -0.92859,-1.64861 z"
       id="path164"
       inkscape:connector-curvature="0" />
    <path
       style="fill:#6c5353;stroke-width:0.99332947"
       d="m 331.77102,349.69292 c 0,-2.20749 0.3833,-3.44855 0.94671,-3.06521 1.23353,0.83929 1.23353,6.77459 0,6.77459 -0.52069,0 -0.94671,-1.66922 -0.94671,-3.70938 z"
       id="path166"
       inkscape:connector-curvature="0" />
    <path
       style="fill:#2b0000;stroke:#000000;stroke-width:1.04920423px;stroke-linecap:butt;stroke-linejoin:miter;stroke-opacity:1"
       d="M 255.86688,275.14963 C 328.7636,227.2064 276.69451,156.33381 276.69451,156.33381 l 72.89672,93.80197 c 0,0 53.01579,-116.73133 99.40461,-22.92938 46.38883,93.80196 -36.92171,9.3802 -36.92171,9.3802 0,0 -3.78684,7.29571 -2.84013,32.30957 0.94671,25.01385 154.31383,48.98546 0.94671,27.09834 -153.36712,-21.88713 -32.18816,42.732 -32.18816,42.732 z"
       id="path170"
       inkscape:connector-curvature="0" />
  </g>
</svg>
