<?xml version="1.0" encoding="UTF-8" standalone="no"?>
<svg
   xmlns:dc="http://purl.org/dc/elements/1.1/"
   xmlns:cc="http://creativecommons.org/ns#"
   xmlns:rdf="http://www.w3.org/1999/02/22-rdf-syntax-ns#"
   xmlns:svg="http://www.w3.org/2000/svg"
   xmlns="http://www.w3.org/2000/svg"
   id="svg28"
   version="1.1"
   height="480"
   width="640">
  <metadata
     id="metadata34">
    <rdf:RDF>
      <cc:Work
         rdf:about="">
        <dc:format>image/svg+xml</dc:format>
        <dc:type
           rdf:resource="http://purl.org/dc/dcmitype/StillImage" />
        <dc:title></dc:title>
      </cc:Work>
    </rdf:RDF>
  </metadata>
  <defs
     id="defs32">
    <filter
       id="filter93"
       style="color-interpolation-filters:sRGB;">
      <feColorMatrix
         id="feColorMatrix85"
         result="fbSourceGraphic"
         type="luminanceToAlpha" />
      <feFlood
         id="feFlood87"
         flood-opacity="1"
         result="result1"
         flood-color="rgb(134,39,24)" />
      <feComposite
         id="feComposite89"
         result="result2"
         in2="fbSourceGraphic"
         operator="out" />
      <feComposite
         id="feComposite91"
         in2="SourceGraphic"
         operator="in" />
    </filter>
  </defs>
  <!-- Created with SVG-edit - http://svg-edit.googlecode.com/ -->
  <g
     transform="matrix(1.0000369,0,0,0.90837229,-36.911828,-38.157435)"
     id="g26">
    <title
       id="title23">Layer 1</title>
    <text
       x="358.39636"
       y="210.6543"
       id="svg_2"
       font-size="24"
       xml:space="preserve"
       transform="matrix(2.52299,0,0,2.89263,-557.409,-383.961)"
       font-weight="bold"
       style="font-weight:bold;font-size:24px;font-family:serif;text-anchor:middle;fill:#007f00;stroke:#000000;stroke-width:0" />
    <flowRoot
       style="font-style:normal;font-variant:normal;font-weight:normal;font-stretch:condensed;font-size:40px;line-height:1;font-family:Impact;-inkscape-font-specification:'Impact Condensed';letter-spacing:0px;word-spacing:0px;fill:#000000;fill-opacity:1;stroke:none"
       id="flowRoot36"
       xml:space="preserve"><flowRegion
         style="font-style:normal;font-variant:normal;font-weight:normal;font-stretch:condensed;line-height:1;font-family:Impact;-inkscape-font-specification:'Impact Condensed'"
         id="flowRegion38"><rect
           style="font-style:normal;font-variant:normal;font-weight:normal;font-stretch:condensed;line-height:1;font-family:Impact;-inkscape-font-specification:'Impact Condensed'"
           y="-291.59763"
           x="-434.55621"
           height="49.230755"
           width="244.26035"
           id="rect40" /></flowRegion><flowPara
         style="font-style:normal;font-variant:normal;font-weight:normal;font-stretch:condensed;font-size:48px;line-height:1;font-family:Impact;-inkscape-font-specification:'Impact Condensed';fill:#550000"
         id="flowPara42">E.ADRIAN.V.O</flowPara></flowRoot>    <path
       id="path77"
       d="m -458.25292,-247.89927 c 52.11611,-148.75175 -55.27517,-129.09386 56.38012,-153.36165 111.65529,-24.2678 146.34179,112.28172 146.34179,112.28172 l 95.85977,-61.46937 46.43448,100.52227 z"
       style="fill:#c8b7b7;stroke:#000000;stroke-width:1.46082139px;stroke-linecap:butt;stroke-linejoin:miter;stroke-opacity:1;filter:url(#filter93)" />
    <path
       transform="matrix(0.9999631,0,0,1.1008702,36.910466,42.006384)"
       id="path140"
       d="m -490.21853,-273.9965 c 7.62592,-21.86357 11.10466,-40.41199 11.05317,-58.93491 -0.0432,-15.5549 -1.79142,-24.62242 -7.49605,-38.88069 -4.51544,-11.28597 -4.87199,-13.49977 -2.54852,-15.82325 2.79809,-2.79808 10.4826,-5.36492 27.28449,-9.11375 41.43021,-9.24389 60.99006,-9.57924 84.28015,-1.44498 33.18443,11.58996 61.59095,41.71314 78.7958,83.5576 4.10451,9.98271 5.19412,14.06926 7.67051,28.76824 1.58753,9.42299 2.88642,17.81289 2.88642,18.64423 0,0.98114 -0.83053,1.51153 -2.36687,1.51153 -2.07382,0 -2.36686,-0.41025 -2.36686,-3.31361 0,-3.29607 -0.0225,-3.31361 -4.26035,-3.31361 -4.23782,0 -4.26036,0.0175 -4.26036,3.31361 0,1.82249 -0.42604,3.31361 -0.94675,3.31361 -0.59609,0 -0.94674,-6.31164 -0.94674,-17.04142 v -17.04142 h -4.26036 -4.26035 l -0.0612,6.86391 -0.0612,6.8639 -2.47643,-6.8639 -2.47643,-6.86391 h -4.56298 -4.56299 v 17.19921 c 0,9.45956 -0.18865,17.01055 -0.41924,16.77996 -0.23059,-0.23058 -1.51247,-7.01164 -2.84862,-15.06903 -1.33615,-8.05738 -2.64673,-15.60836 -2.9124,-16.77996 -0.45047,-1.9866 -0.98274,-2.13018 -7.89652,-2.13018 h -7.41348 l -2.18425,15.85799 c -1.20134,8.72189 -2.51654,16.71006 -2.92267,17.75148 -0.40613,1.04142 -0.76542,-6.09468 -0.79842,-15.85799 l -0.0601,-17.75148 h -5.2071 -5.2071 v 17.51479 c 0,14.2083 -0.24513,17.5148 -1.29847,17.5148 -0.95738,0 -1.4158,-2.02667 -1.74509,-7.71483 -0.3256,-5.62473 -0.8605,-8.01749 -1.97437,-8.83197 -1.40527,-1.02756 -1.40451,-1.24039 0.009,-2.65428 2.00641,-2.00642 2.02017,-9.26156 0.0234,-12.3091 -1.78971,-2.73128 -5.04609,-3.51941 -14.54154,-3.51941 h -6.98225 v 17.51479 17.5148 h -3.52427 c -3.45969,0 -3.48571,-0.027 -1.42012,-1.4738 2.0041,-1.40373 2.10415,-2.10445 2.10415,-14.73681 0,-7.29464 -0.41704,-14.04224 -0.92676,-14.99466 -1.40135,-2.61845 -6.07932,-3.82432 -14.83582,-3.82432 h -7.90606 l -0.11077,17.75148 -0.11077,17.75148 -2.96615,-17.51479 -2.96615,-17.5148 h -7.55268 -7.55268 l -2.38815,16.56805 c -1.31348,9.11243 -2.52165,15.18343 -2.68482,13.49112 -0.27881,-2.89161 -0.51785,-3.07692 -3.96924,-3.07692 -3.63264,0 -3.6765,0.0437 -4.03496,4.02367 l -0.36241,4.02367 -0.1654,-4.02367 -0.1654,-4.02367 h -3.78699 c -3.69681,0 -3.78698,-0.0789 -3.78698,-3.31361 0,-3.15581 0.15779,-3.31361 3.31361,-3.31361 3.23472,0 3.31361,-0.0901 3.31361,-3.78698 0,-3.69681 -0.0789,-3.78698 -3.31361,-3.78698 -3.05062,0 -3.31361,-0.22542 -3.31361,-2.84024 0,-2.61481 0.26299,-2.84024 3.31361,-2.84024 3.23472,0 3.31361,-0.0901 3.31361,-3.78698 v -3.78698 h -8.52071 -8.52071 v 17.51479 17.5148 h -11.68524 -11.68524 z"
       style="fill:#c8b7b7;stroke-width:0.94674557" />
    <path
       transform="matrix(0.9999631,0,0,1.1008702,36.910466,42.006384)"
       id="path142"
       d="m -271.22447,-267.84266 c 0.0147,-1.17159 1.0072,-8.84023 2.20561,-17.04142 l 2.17893,-14.91124 h -5.44399 c -6.20309,0 -5.80167,-0.66623 -7.13036,11.83432 l -0.70441,6.62722 -1.01001,-8.99408 -1.01002,-8.99409 -4.42694,-0.47337 -4.42694,-0.47337 46.98381,-27.35898 c 25.8411,-15.04743 47.13406,-26.97643 47.3177,-26.50887 0.18365,0.46755 10.21934,20.23471 22.30154,43.92702 l 21.96765,43.07692 -3.31994,0.6555 c -1.82598,0.36053 -20.90373,0.68005 -42.39503,0.71006 l -39.07508,0.0546 1.51027,-2.30496 c 1.83677,-2.80327 2.83127,-14.28698 1.88981,-21.82215 -1.07388,-8.59508 -6.89532,-12.31692 -15.59933,-9.97318 -6.63873,1.78763 -7.63876,4.13397 -7.63876,17.92264 0,9.30092 0.32857,12.43845 1.4738,14.0735 1.40787,2.01001 1.3655,2.10415 -0.94674,2.10415 -2.13518,0 -2.42055,-0.39066 -2.42055,-3.31361 0,-3.29608 -0.0225,-3.31361 -4.26035,-3.31361 -4.23782,0 -4.26036,0.0175 -4.26036,3.31361 0,2.68245 -0.36066,3.31361 -1.89349,3.31361 -1.34036,0 -1.8857,-0.62227 -1.86682,-2.13018 z"
       style="fill:#6c5353;stroke-width:0.94674557" />
    <path
       transform="matrix(0.9999631,0,0,1.1008702,36.910466,42.006384)"
       id="path144"
       d="m -491.42813,-270.85489 c 7.70821,-20.47882 11.96928,-42.36514 11.99416,-61.60613 0.0205,-15.83482 -1.82535,-25.57309 -7.58481,-40.01605 -2.13253,-5.34774 -3.87733,-10.71367 -3.87733,-11.92427 0,-3.60056 2.69792,-5.30208 14.20118,-8.95638 5.7745,-1.83441 34.81246,-7.90917 44.97042,-9.40784 2.60355,-0.38412 11.97633,-0.66633 20.8284,-0.62713 14.18793,0.0628 17.17355,0.36107 25.2013,2.51753 19.43219,5.21995 34.83658,14.53715 51.06492,30.88613 12.03749,12.12697 21.55445,25.39483 29.23621,40.75901 5.1556,10.31169 11.05392,24.73875 11.84045,28.96133 2.0197,10.84298 5.26067,30.89921 5.26067,32.55482 0,1.48978 -0.58971,2.00139 -2.30688,2.00139 -1.91062,0 -2.35784,-0.52854 -2.60355,-3.07692 -0.28049,-2.90913 -0.50318,-3.07693 -4.08365,-3.07693 -3.58507,0 -3.80287,0.16502 -4.08499,3.0949 -0.16391,1.7022 -0.69646,2.84865 -1.18344,2.54768 -0.49463,-0.3057 -0.88542,-7.83495 -0.88542,-17.0594 v -16.51217 h -4.21888 -4.21888 l -0.27816,6.86391 -0.27816,6.8639 -2.34494,-6.8639 -2.34495,-6.86391 h -4.51896 -4.51896 l -0.0641,16.80473 c -0.0726,19.03452 -0.74583,19.16415 -3.68784,0.71006 -1.07917,-6.76923 -2.20523,-13.49653 -2.50236,-14.94955 l -0.54022,-2.64188 -7.25364,0.27501 -7.25362,0.275 -2.36686,15.79577 c -1.30178,8.68767 -2.68639,16.10779 -3.07693,16.48916 -0.39053,0.38135 -0.71006,-6.83325 -0.71006,-16.03246 v -16.72584 h -5.2071 -5.2071 v 16.98554 c 0,15.4536 -0.62296,19.91898 -2.38187,17.07303 -0.34056,-0.55106 -0.92555,-4.20907 -1.29998,-8.12892 -0.37904,-3.96821 -1.20248,-7.44944 -1.85788,-7.8545 -0.90561,-0.55969 -0.83922,-1.00792 0.28782,-1.94329 2.23554,-1.85532 1.98982,-10.87325 -0.36032,-13.22338 -2.1298,-2.1298 -7.86874,-3.16192 -15.21617,-2.73656 l -5.2071,0.30145 -0.25804,17.27811 -0.25805,17.27811 h -3.29225 c -3.29225,0 -3.29225,0 -1.39876,-1.89349 1.71088,-1.71089 1.89349,-3.15582 1.89349,-14.98291 0,-12.75197 -0.0612,-13.14695 -2.37643,-15.32195 -2.14899,-2.01887 -3.25898,-2.23854 -11.59764,-2.2952 l -9.2212,-0.0627 -0.47337,17.04142 c -0.51701,18.61239 -0.27867,18.88228 -4.18036,-4.73372 l -2.03339,-12.3077 -7.23132,-0.27514 c -6.28123,-0.23899 -7.29306,-0.0525 -7.70123,1.42012 -0.25845,0.93239 -1.46425,8.51183 -2.67956,16.84319 -1.2153,8.33136 -2.34493,13.73931 -2.51029,12.01767 -0.28648,-2.98273 -0.46477,-3.1166 -3.78273,-2.84024 -3.01069,0.25076 -3.56361,0.67452 -4.08438,3.13026 l -0.6023,2.84024 -0.11201,-3.07693 c -0.10703,-2.93991 -0.28064,-3.07692 -3.899,-3.07692 -3.69681,0 -3.78698,-0.0789 -3.78698,-3.31361 0,-3.16652 0.14963,-3.31361 3.37076,-3.31361 3.31618,0 3.366,-0.0575 3.07692,-3.55029 -0.26826,-3.24126 -0.56166,-3.57613 -3.37076,-3.84697 -2.70553,-0.26086 -3.07692,-0.63225 -3.07692,-3.07692 0,-2.54627 0.27887,-2.78026 3.31361,-2.78026 3.23472,0 3.31361,-0.0901 3.31361,-3.78698 v -3.78698 h -8.52071 -8.52071 v 17.51479 17.5148 h -11.82618 -11.82619 z"
       style="fill:#6c5353;stroke-width:0.94674557" />
    <path
       transform="matrix(0.9999631,0,0,1.1008702,36.910466,42.006384)"
       id="path146"
       d="m -244.38812,-282.28053 c 0.002,-5.72781 0.15807,-7.94894 0.34652,-4.93584 0.18845,3.01309 0.1867,7.69948 -0.004,10.4142 -0.19059,2.71471 -0.34478,0.24945 -0.34264,-5.47836 z"
       style="fill:#6c5353;stroke-width:0.94674557" />
    <path
       transform="matrix(0.9999631,0,0,1.1008702,36.910466,42.006384)"
       id="path148"
       d="m -246.63576,-281.75128 c 0,-6.51547 0.40111,-11.55297 0.94675,-11.89019 0.61197,-0.37822 0.94674,3.61936 0.94674,11.30507 0,7.29563 -0.36583,11.89019 -0.94674,11.89019 -0.57831,0 -0.94675,-4.39952 -0.94675,-11.30507 z"
       style="fill:#6c5353;stroke-width:0.94674557" />
    <path
       transform="matrix(0.9999631,0,0,1.1008702,36.910466,42.006384)"
       id="path150"
       d="m -316.62019,-271.15627 c 0.0806,-5.8687 0.16569,-5.83185 2.18637,0.94675 1.26948,4.25859 1.24508,4.49704 -0.46027,4.49704 -1.56983,0 -1.79125,-0.69833 -1.7261,-5.44379 z"
       style="fill:#6c5353;stroke-width:0.94674557" />
    <path
       transform="matrix(0.9999631,0,0,1.1008702,36.910466,42.006384)"
       id="path152"
       d="m -341.31031,-267.60597 c 0,-1.89349 0.47337,-2.84024 1.42011,-2.84024 0.78107,0 1.42594,0.31953 1.43305,0.71006 0.007,0.39053 0.26982,1.66864 0.58379,2.84024 0.46039,1.71794 0.18307,2.13018 -1.43304,2.13018 -1.59541,0 -2.00391,-0.579 -2.00391,-2.84024 z"
       style="fill:#6c5353;stroke-width:0.94674557" />
    <path
       transform="matrix(0.9999631,0,0,1.1008702,36.910466,42.006384)"
       id="path154"
       d="m -379.18014,-272.3397 c 0,-4.41814 0.39448,-7.57396 0.94675,-7.57396 0.55227,0 0.94675,3.15582 0.94675,7.57396 0,4.41815 -0.39448,7.57397 -0.94675,7.57397 -0.55227,0 -0.94675,-3.15582 -0.94675,-7.57397 z"
       style="fill:#6c5353;stroke-width:0.94674557" />
    <path
       transform="matrix(0.9999631,0,0,1.1008702,36.910466,42.006384)"
       id="path156"
       d="m -405.68901,-282.3364 c 0,-7.05455 0.33644,-10.73552 0.94674,-10.35833 1.26152,0.77966 1.26152,21.30178 0,21.30178 -0.57656,0 -0.94674,-4.27898 -0.94674,-10.94345 z"
       style="fill:#6c5353;stroke-width:0.94674557" />
    <path
       transform="matrix(0.9999631,0,0,1.1008702,36.910466,42.006384)"
       id="path158"
       d="m -432.19789,-267.60597 c 0,-2.20907 0.42078,-2.84024 1.89349,-2.84024 1.47272,0 1.89349,0.63117 1.89349,2.84024 0,2.20907 -0.42077,2.84024 -1.89349,2.84024 -1.47271,0 -1.89349,-0.63117 -1.89349,-2.84024 z"
       style="fill:#6c5353;stroke-width:0.94674557" />
    <path
       transform="matrix(0.9999631,0,0,1.1008702,36.910466,42.006384)"
       id="path160"
       d=""
       style="fill:#6c5353;stroke-width:0.94674557" />
    <path
       transform="matrix(0.9999631,0,0,1.1008702,36.910466,42.006384)"
       id="path162"
       d="m -431.15677,-282.04384 c 0.0802,-3.41815 0.20844,-3.66748 0.85237,-1.6568 1.09114,3.40708 1.09114,5.68047 0,5.68047 -0.52071,0 -0.90427,-1.81065 -0.85237,-4.02367 z"
       style="fill:#6c5353;stroke-width:0.94674557" />
    <path
       transform="matrix(0.9999631,0,0,1.1008702,36.910466,42.006384)"
       id="path164"
       d="m -340.93823,-279.51772 c 0.31606,-0.82365 0.57466,-3.02484 0.57466,-4.89152 0,-4.48253 0.53957,-3.67782 1.26863,1.89203 0.48745,3.72393 0.3302,4.49704 -0.91466,4.49704 -0.98185,0 -1.30396,-0.51946 -0.92863,-1.49755 z"
       style="fill:#6c5353;stroke-width:0.94674557" />
    <path
       transform="matrix(0.9999631,0,0,1.1008702,36.910466,42.006384)"
       id="path166"
       d="m -379.18014,-289.91037 c 0,-2.00523 0.38332,-3.13257 0.94675,-2.78436 1.23357,0.76239 1.23357,6.15385 0,6.15385 -0.52071,0 -0.94675,-1.51627 -0.94675,-3.36949 z"
       style="fill:#6c5353;stroke-width:0.94674557" />
    <path
       id="path170"
       d="m -418.15982,-351.6906 c 72.89672,-47.94323 20.82763,-118.81582 20.82763,-118.81582 l 72.89672,93.80197 c 0,0 53.01579,-116.73133 99.40461,-22.92938 46.38883,93.80196 -36.92171,9.3802 -36.92171,9.3802 0,0 -3.78684,7.29571 -2.84013,32.30957 0.94671,25.01385 154.31383,48.98546 0.94671,27.09834 -153.36712,-21.88713 -32.18816,42.732 -32.18816,42.732 z"
       style="fill:#2b0000;stroke:#000000;stroke-width:1.04920423px;stroke-linecap:butt;stroke-linejoin:miter;stroke-opacity:1" />
  </g>
</svg>
